<svg width="1171" height="590" viewBox="0 0 1171 590" xmlns="http://www.w3.org/2000/svg" xmlns:xlink="http://www.w3.org/1999/xlink"><title>Group</title><defs><path d="M96.215 12.868c-.535-1.393-.037-3.049 1.107-3.696l10.388-5.883c1.146-.649 2.508-.048 3.043 1.346l4.359 11.352c.534 1.392.036 3.049-1.107 3.696l-10.388 5.883c-1.146.649-2.508.048-3.043-1.346l-4.36-11.352" id="a"/><mask id="q" x="0" y="0" width="19.327" height="22.799" fill="#fff"><use xlink:href="#a"/></mask><path d="M353.489 224.07c-.535-1.392-.037-3.048 1.107-3.696l10.388-5.882c1.146-.65 2.507-.049 3.043 1.346l4.359 11.351c.534 1.393.036 3.049-1.107 3.697l-10.388 5.882c-1.146.65-2.508.048-3.043-1.346l-4.36-11.352" id="b"/><mask id="r" x="0" y="0" width="19.327" height="22.799" fill="#fff"><use xlink:href="#b"/></mask><path d="M230.079 20.537c-.328-1.485.397-3.011 1.619-3.409l18.54-6.033c1.222-.397 2.478.485 2.806 1.97l1.853 8.398c.327 1.485-.397 3.011-1.62 3.409l-18.54 6.033c-1.221.397-2.478-.485-2.805-1.97l-1.853-8.398" id="c"/><mask id="s" x="0" y="0" width="24.975" height="20" fill="#fff"><use xlink:href="#c"/></mask><path id="d" d="M28 14h34v24H28z"/><mask id="t" x="0" y="0" width="34" height="24" fill="#fff"><use xlink:href="#d"/></mask><path d="M998.888 267.013c-.534-1.392-.036-3.049 1.107-3.696l10.388-5.883c1.146-.649 2.508-.048 3.043 1.346l4.36 11.352c.534 1.393.036 3.049-1.108 3.696l-10.388 5.883c-1.146.649-2.507.048-3.043-1.346l-4.359-11.352" id="e"/><mask id="u" x="0" y="0" width="19.327" height="22.799" fill="#fff"><use xlink:href="#e"/></mask><path d="M741.614 55.81c-.534-1.392-.036-3.048 1.107-3.696l10.388-5.882c1.146-.65 2.508-.048 3.043 1.346l4.36 11.352c.534 1.392.036 3.048-1.108 3.696l-10.388 5.882c-1.146.65-2.507.049-3.043-1.346l-4.359-11.351" id="f"/><mask id="v" x="0" y="0" width="19.327" height="22.799" fill="#fff"><use xlink:href="#f"/></mask><path d="M859.103 261.537c-.327-1.485.397-3.011 1.62-3.409l18.54-6.033c1.221-.397 2.478.485 2.805 1.97l1.853 8.398c.328 1.485-.397 3.011-1.619 3.409l-18.54 6.033c-1.222.397-2.478-.485-2.806-1.97l-1.853-8.398" id="g"/><mask id="w" x="0" y="0" width="24.975" height="20" fill="#fff"><use xlink:href="#g"/></mask><path id="h" d="M1052 245h34v24h-34z"/><mask id="x" x="0" y="0" width="34" height="24" fill="#fff"><use xlink:href="#h"/></mask><path d="M714.215 315.868c-.535-1.393-.037-3.049 1.107-3.696l10.388-5.883c1.146-.649 2.508-.048 3.043 1.346l4.359 11.352c.534 1.392.036 3.049-1.107 3.696l-10.388 5.883c-1.146.649-2.508.048-3.043-1.346l-4.36-11.352" id="i"/><mask id="y" x="0" y="0" width="19.327" height="22.799" fill="#fff"><use xlink:href="#i"/></mask><path d="M971.489 527.07c-.535-1.392-.037-3.048 1.107-3.696l10.388-5.882c1.146-.65 2.507-.049 3.043 1.346l4.359 11.351c.534 1.393.036 3.049-1.107 3.697l-10.388 5.882c-1.146.65-2.508.048-3.043-1.346l-4.36-11.352" id="j"/><mask id="z" x="0" y="0" width="19.327" height="22.799" fill="#fff"><use xlink:href="#j"/></mask><path d="M848.079 323.537c-.328-1.485.397-3.011 1.619-3.409l18.54-6.033c1.222-.397 2.478.485 2.806 1.97l1.853 8.398c.327 1.485-.397 3.011-1.62 3.409l-18.54 6.033c-1.221.397-2.478-.485-2.805-1.97l-1.853-8.398" id="k"/><mask id="A" x="0" y="0" width="24.975" height="20" fill="#fff"><use xlink:href="#k"/></mask><path id="l" d="M646 317h34v24h-34z"/><mask id="B" x="0" y="0" width="34" height="24" fill="#fff"><use xlink:href="#l"/></mask><path d="M431.888 570.013c-.534-1.392-.036-3.049 1.107-3.696l10.388-5.883c1.146-.649 2.508-.048 3.043 1.346l4.36 11.352c.534 1.393.036 3.049-1.108 3.696l-10.388 5.883c-1.146.649-2.508.048-3.043-1.346l-4.359-11.352" id="m"/><mask id="C" x="0" y="0" width="19.327" height="22.799" fill="#fff"><use xlink:href="#m"/></mask><path d="M174.614 358.81c-.534-1.392-.036-3.048 1.107-3.696l10.388-5.882c1.146-.65 2.508-.048 3.043 1.346l4.36 11.352c.534 1.392.036 3.048-1.108 3.696l-10.388 5.882c-1.146.65-2.507.049-3.043-1.346l-4.359-11.351" id="n"/><mask id="D" x="0" y="0" width="19.327" height="22.799" fill="#fff"><use xlink:href="#n"/></mask><path d="M292.103 564.537c-.327-1.485.397-3.011 1.62-3.409l18.54-6.033c1.221-.397 2.478.485 2.805 1.97l1.853 8.398c.328 1.485-.397 3.011-1.619 3.409l-18.54 6.033c-1.222.397-2.478-.485-2.806-1.97l-1.853-8.398" id="o"/><mask id="E" x="0" y="0" width="24.975" height="20" fill="#fff"><use xlink:href="#o"/></mask><path id="p" d="M485 548h34v24h-34z"/><mask id="F" x="0" y="0" width="34" height="24" fill="#fff"><use xlink:href="#p"/></mask></defs><g transform="translate(3 2)" stroke="#F1F1F1" fill="none" fill-rule="evenodd" stroke-opacity=".085"><use mask="url(#q)" stroke-width="8" xlink:href="#a"/><use mask="url(#r)" stroke-width="8" xlink:href="#b"/><path d="M105.31 137.97s6.072-20.01 12.856-24.568c6.679-4.487 27.532-2.565 27.532-2.565" stroke-width="4" stroke-linecap="square"/><path stroke-width="4" d="M148.77 55.156l-6.647.952 3.253-6.8-3-7.16 6.598 1.714 4.792-5.377.824 7.86 5.962 3.837-6.088 3.143-1.108 7.748-4.587-5.917m62.203 148.51l-6.646.952 3.253-6.8-3-7.16 6.597 1.714 4.792-5.377.825 7.86 5.962 3.836-6.088 3.144-1.108 7.748-4.587-5.917m222.576-45.221l-6.646.952 3.253-6.8-3-7.16 6.597 1.714 4.792-5.377.825 7.86 5.961 3.836-6.088 3.144-1.107 7.748-4.587-5.917M310.036 24.488l-3.96 6.552-1.876-7.527-6.358-2.219 5.532-4.69.03-7.924 5.295 4.628 6.377-2.678-2.26 7.55 3.912 6.269-6.692.039m119.099 65.459l-7.5 12.412-3.556-14.26-12.045-4.202 10.48-8.887.057-15.01 10.032 8.767 12.08-5.073-4.28 14.305 7.41 11.874-12.678.074"/><use mask="url(#s)" stroke-width="8" xlink:href="#c"/><path d="M332.963 61.871s24.887 4.667 28.683 0c3.938-4.841-5.481-28.525-5.481-28.525" stroke-width="4" stroke-linecap="square"/><ellipse stroke-width="4" cx="232.739" cy="83.262" rx="9.739" ry="10.262"/><ellipse stroke-width="4" cx="115.895" cy="271.769" rx="9.739" ry="10.262"/><ellipse stroke-width="4" cx="425.216" cy="12.262" rx="9.739" ry="10.262"/><path d="M276 235.473v32.351m-4.034.176H245.9" stroke-width="4" stroke-linecap="square"/><path stroke-width="4" d="M30 189l24 42H6zm324.499-46.087l-8.612 47.6-36.77-30.853zm79.779 95.787l46.78-12.311-12.423 46.364zm46.604-159.911l46.568-5.63-26.664 48.104z"/><ellipse stroke-width="4" cx="46" cy="91" rx="16" ry="16"/><path stroke-width="4" d="M125.634 175l22.35 16.238-8.537 26.274H111.82l-8.537-26.274z"/><ellipse stroke-width="4" cx="359.5" cy="95" rx="18.5" ry="15"/><path d="M223.5 143.5l46 21m0 0l-8.579-7.214-2.492 5.458L269.5 164.5zm274 62l-32-43m-3 34l38-27" stroke-width="4" stroke-linecap="square"/><use mask="url(#t)" stroke-width="8" xlink:href="#d"/><use mask="url(#u)" stroke-width="8" transform="rotate(180 1008.337 268.573)" xlink:href="#e"/><use mask="url(#v)" stroke-width="8" transform="rotate(180 751.063 57.37)" xlink:href="#f"/><path d="M1008.69 145.03s-6.072 20.01-12.856 24.568c-6.679 4.487-27.532 2.565-27.532 2.565" stroke-width="4" stroke-linecap="square"/><path stroke-width="4" d="M965.23 227.844l6.647-.952-3.253 6.8 3 7.16-6.598-1.714-4.792 5.377-.824-7.86-5.962-3.837 6.088-3.143 1.108-7.748 4.587 5.917m-62.203-148.51l6.646-.952-3.253 6.8 3 7.16-6.597-1.714-4.792 5.377-.825-7.86-5.962-3.836 6.088-3.144 1.108-7.748 4.587 5.917m-222.576 45.221l6.646-.952-3.253 6.8 3 7.16-6.597-1.714-4.792 5.377-.825-7.86-5.961-3.836 6.088-3.144 1.107-7.748 4.587 5.917m123.512 133.957l3.96-6.552 1.876 7.527 6.358 2.219-5.532 4.69-.03 7.924-5.295-4.628-6.377 2.678 2.26-7.55-3.912-6.269 6.692-.039m-119.099-65.459l7.5-12.412 3.556 14.26 12.045 4.202-10.48 8.887-.057 15.01-10.032-8.767-12.08 5.073 4.28-14.305-7.41-11.874 12.678-.074"/><use mask="url(#w)" stroke-width="8" transform="rotate(180 871.512 262)" xlink:href="#g"/><path d="M781.037 221.129s-24.887-4.667-28.683 0c-3.938 4.841 5.481 28.525 5.481 28.525" stroke-width="4" stroke-linecap="square"/><ellipse stroke-width="4" transform="rotate(180 881.26 199.738)" cx="881.261" cy="199.738" rx="9.739" ry="10.262"/><ellipse stroke-width="4" transform="rotate(180 998.105 11.231)" cx="998.105" cy="11.231" rx="9.739" ry="10.262"/><ellipse stroke-width="4" transform="rotate(180 688.784 270.738)" cx="688.784" cy="270.738" rx="9.739" ry="10.262"/><path d="M838 47.527V15.176m4.034-.176H868.1" stroke-width="4" stroke-linecap="square"/><path stroke-width="4" d="M1084 94l-24-42h48zm-324.499 46.087l8.612-47.6 36.77 30.853zM679.722 44.3l-46.78 12.311 12.423-46.364zm-46.604 159.911l-46.568 5.63 26.664-48.104z"/><ellipse stroke-width="4" transform="rotate(180 1068 192)" cx="1068" cy="192" rx="16" ry="16"/><path stroke-width="4" d="M988.366 108l-22.35-16.238 8.537-26.274h27.626l8.537 26.274z"/><ellipse stroke-width="4" transform="rotate(180 754.5 188)" cx="754.5" cy="188" rx="18.5" ry="15"/><path d="M890.5 139.5l-46-21m46 21l-8.579-7.214-2.492 5.458L890.5 139.5zm-320-83l32 43m3-34l-38 27" stroke-width="4" stroke-linecap="square"/><use mask="url(#x)" stroke-width="8" transform="rotate(180 1069 257)" xlink:href="#h"/><ellipse stroke-width="4" cx="544" cy="17.5" rx="30" ry="10.5"/><path d="M567.5 288.5l21-26m1-2l34 24" stroke-width="4" stroke-linecap="square"/><use mask="url(#y)" stroke-width="8" xlink:href="#i"/><use mask="url(#z)" stroke-width="8" xlink:href="#j"/><path d="M723.31 440.97s6.072-20.01 12.856-24.568c6.679-4.487 27.532-2.565 27.532-2.565" stroke-width="4" stroke-linecap="square"/><path stroke-width="4" d="M766.77 358.156l-6.647.952 3.253-6.8-3-7.16 6.598 1.714 4.792-5.377.824 7.86 5.962 3.837-6.088 3.143-1.108 7.748-4.587-5.917m62.203 148.51l-6.646.952 3.253-6.8-3-7.16 6.597 1.714 4.792-5.377.825 7.86 5.962 3.836-6.088 3.144-1.108 7.748-4.587-5.917m222.576-45.221l-6.646.952 3.253-6.8-3-7.16 6.597 1.714 4.792-5.377.825 7.86 5.961 3.836-6.088 3.144-1.107 7.748-4.587-5.917M928.036 327.488l-3.96 6.552-1.876-7.527-6.358-2.219 5.532-4.69.03-7.924 5.295 4.628 6.377-2.678-2.26 7.55 3.912 6.269-6.692.039m119.099 65.459l-7.5 12.412-3.556-14.26-12.045-4.202 10.48-8.887.057-15.01 10.032 8.767 12.08-5.073-4.28 14.305 7.41 11.874-12.678.074"/><use mask="url(#A)" stroke-width="8" xlink:href="#k"/><path d="M950.963 364.871s24.887 4.667 28.683 0c3.938-4.841-5.481-28.525-5.481-28.525" stroke-width="4" stroke-linecap="square"/><ellipse stroke-width="4" cx="850.739" cy="386.262" rx="9.739" ry="10.262"/><ellipse stroke-width="4" cx="733.895" cy="574.769" rx="9.739" ry="10.262"/><ellipse stroke-width="4" cx="1043.216" cy="315.262" rx="9.739" ry="10.262"/><path d="M894 538.473v32.351m-4.034.176H863.9" stroke-width="4" stroke-linecap="square"/><path stroke-width="4" d="M648 492l24 42h-48zm324.499-46.087l-8.612 47.6-36.77-30.853zm79.779 95.787l46.78-12.311-12.423 46.364zm46.604-159.911l46.568-5.63-26.664 48.104z"/><ellipse stroke-width="4" cx="664" cy="394" rx="16" ry="16"/><path stroke-width="4" d="M743.634 478l22.35 16.238-8.537 26.274H729.82l-8.537-26.274z"/><ellipse stroke-width="4" cx="977.5" cy="398" rx="18.5" ry="15"/><path d="M841.5 446.5l46 21m0 0l-8.579-7.214-2.492 5.458L887.5 467.5zm-342.952 55.696l43.133-26.392m-.001 0l-10.777 3.078 3.131 5.118 7.647-8.196zM1161.5 529.5l-32-43m-3 34l38-27" stroke-width="4" stroke-linecap="square"/><use mask="url(#B)" stroke-width="8" xlink:href="#l"/><use mask="url(#C)" stroke-width="8" transform="rotate(180 441.337 571.573)" xlink:href="#m"/><use mask="url(#D)" stroke-width="8" transform="rotate(180 184.063 360.37)" xlink:href="#n"/><path d="M441.69 448.03s-6.072 20.01-12.856 24.568c-6.679 4.487-27.532 2.565-27.532 2.565" stroke-width="4" stroke-linecap="square"/><path stroke-width="4" d="M398.23 530.844l6.647-.952-3.253 6.8 3 7.16-6.598-1.714-4.792 5.377-.824-7.86-5.962-3.837 6.088-3.143 1.108-7.748 4.587 5.917m-62.203-148.51l6.646-.952-3.253 6.8 3 7.16-6.597-1.714-4.792 5.377-.825-7.86-5.962-3.836 6.088-3.144 1.108-7.748 4.587 5.917m-222.576 45.221l6.646-.952-3.253 6.8 3 7.16-6.597-1.714-4.792 5.377-.825-7.86-5.961-3.836 6.088-3.144 1.107-7.748 4.587 5.917m123.512 133.957l3.96-6.552 1.876 7.527 6.358 2.219-5.532 4.69-.03 7.924-5.295-4.628-6.377 2.678 2.26-7.55-3.912-6.269 6.692-.039m-119.099-65.459l7.5-12.412 3.556 14.26 12.045 4.202-10.48 8.887-.057 15.01-10.032-8.767-12.08 5.073 4.28-14.305-7.41-11.874 12.678-.074"/><use mask="url(#E)" stroke-width="8" transform="rotate(180 304.512 565)" xlink:href="#o"/><path d="M214.037 524.129s-24.887-4.667-28.683 0c-3.938 4.841 5.481 28.525 5.481 28.525" stroke-width="4" stroke-linecap="square"/><ellipse stroke-width="4" transform="rotate(180 314.26 502.738)" cx="314.261" cy="502.738" rx="9.739" ry="10.262"/><ellipse stroke-width="4" transform="rotate(180 431.105 314.231)" cx="431.105" cy="314.231" rx="9.739" ry="10.262"/><ellipse stroke-width="4" transform="rotate(180 121.784 573.738)" cx="121.784" cy="573.738" rx="9.739" ry="10.262"/><path d="M271 350.527v-32.351m4.034-.176H301.1" stroke-width="4" stroke-linecap="square"/><path stroke-width="4" d="M517 397l-24-42h48zm-324.499 46.087l8.612-47.6 36.77 30.853zM112.722 347.3l-46.78 12.311 12.423-46.364zM66.118 507.211l-46.568 5.63 26.664-48.104z"/><ellipse stroke-width="4" transform="rotate(180 501 495)" cx="501" cy="495" rx="16" ry="16"/><path stroke-width="4" d="M421.366 411l-22.35-16.238 8.537-26.274h27.626l8.537 26.274z"/><ellipse stroke-width="4" transform="rotate(180 187.5 491)" cx="187.5" cy="491" rx="18.5" ry="15"/><path d="M323.5 442.5l-46-21m46 21l-8.579-7.214-2.492 5.458L323.5 442.5zm-320-83l32 43m3-34l-38 27" stroke-width="4" stroke-linecap="square"/><use mask="url(#F)" stroke-width="8" transform="rotate(180 502 560)" xlink:href="#p"/><ellipse stroke-width="4" cx="589" cy="334.5" rx="30" ry="10.5"/><path d="M532.5 459.5l21-26m1-2l34 24" stroke-width="4" stroke-linecap="square"/></g></svg>